<mxfile host="app.diagrams.net" modified="2023-10-25T17:58:15.393Z" agent="Mozilla/5.0 (Windows NT 10.0; Win64; x64) AppleWebKit/537.36 (KHTML, like Gecko) Chrome/118.0.0.0 Safari/537.36 Edg/118.0.2088.61" etag="8Na0d_o6UBElzNB2Dcjv" version="22.0.8" type="device">
  <diagram name="Página-1" id="zJ7kzSTTRvTzhU6fCH9Y">
    <mxGraphModel dx="1841" dy="481" grid="1" gridSize="10" guides="1" tooltips="1" connect="1" arrows="1" fold="1" page="1" pageScale="1" pageWidth="827" pageHeight="1169" math="0" shadow="0">
      <root>
        <mxCell id="0" />
        <mxCell id="1" parent="0" />
        <mxCell id="V68TfB_zzxeanlvWWNrJ-36" style="edgeStyle=orthogonalEdgeStyle;rounded=0;orthogonalLoop=1;jettySize=auto;html=1;exitX=0.5;exitY=1;exitDx=0;exitDy=0;entryX=0.5;entryY=0;entryDx=0;entryDy=0;" edge="1" parent="1" source="V68TfB_zzxeanlvWWNrJ-1" target="V68TfB_zzxeanlvWWNrJ-6">
          <mxGeometry relative="1" as="geometry" />
        </mxCell>
        <mxCell id="V68TfB_zzxeanlvWWNrJ-1" value="JUGADOR" style="rounded=1;whiteSpace=wrap;html=1;arcSize=0;" vertex="1" parent="1">
          <mxGeometry x="340" y="240" width="120" height="60" as="geometry" />
        </mxCell>
        <mxCell id="V68TfB_zzxeanlvWWNrJ-33" style="edgeStyle=orthogonalEdgeStyle;rounded=0;orthogonalLoop=1;jettySize=auto;html=1;exitX=1;exitY=1;exitDx=0;exitDy=0;entryX=0;entryY=0.25;entryDx=0;entryDy=0;" edge="1" parent="1" source="V68TfB_zzxeanlvWWNrJ-2" target="V68TfB_zzxeanlvWWNrJ-1">
          <mxGeometry relative="1" as="geometry" />
        </mxCell>
        <mxCell id="V68TfB_zzxeanlvWWNrJ-2" value="NOMBRE" style="ellipse;whiteSpace=wrap;html=1;" vertex="1" parent="1">
          <mxGeometry x="260" y="180" width="100" height="50" as="geometry" />
        </mxCell>
        <mxCell id="V68TfB_zzxeanlvWWNrJ-34" style="edgeStyle=orthogonalEdgeStyle;rounded=0;orthogonalLoop=1;jettySize=auto;html=1;exitX=0.5;exitY=1;exitDx=0;exitDy=0;" edge="1" parent="1" source="V68TfB_zzxeanlvWWNrJ-3" target="V68TfB_zzxeanlvWWNrJ-1">
          <mxGeometry relative="1" as="geometry" />
        </mxCell>
        <mxCell id="V68TfB_zzxeanlvWWNrJ-3" value="FECHA" style="ellipse;whiteSpace=wrap;html=1;" vertex="1" parent="1">
          <mxGeometry x="370" y="130" width="120" height="80" as="geometry" />
        </mxCell>
        <mxCell id="V68TfB_zzxeanlvWWNrJ-35" style="edgeStyle=orthogonalEdgeStyle;rounded=0;orthogonalLoop=1;jettySize=auto;html=1;exitX=0.5;exitY=1;exitDx=0;exitDy=0;entryX=1;entryY=0.5;entryDx=0;entryDy=0;" edge="1" parent="1" source="V68TfB_zzxeanlvWWNrJ-4" target="V68TfB_zzxeanlvWWNrJ-1">
          <mxGeometry relative="1" as="geometry" />
        </mxCell>
        <mxCell id="V68TfB_zzxeanlvWWNrJ-4" value="POSICIÓN DE JUEGO" style="ellipse;whiteSpace=wrap;html=1;" vertex="1" parent="1">
          <mxGeometry x="470" y="60" width="120" height="80" as="geometry" />
        </mxCell>
        <mxCell id="V68TfB_zzxeanlvWWNrJ-32" style="edgeStyle=orthogonalEdgeStyle;rounded=0;orthogonalLoop=1;jettySize=auto;html=1;exitX=0.5;exitY=1;exitDx=0;exitDy=0;entryX=0;entryY=0.75;entryDx=0;entryDy=0;" edge="1" parent="1" source="V68TfB_zzxeanlvWWNrJ-5" target="V68TfB_zzxeanlvWWNrJ-1">
          <mxGeometry relative="1" as="geometry" />
        </mxCell>
        <mxCell id="V68TfB_zzxeanlvWWNrJ-5" value="codigo" style="ellipse;whiteSpace=wrap;html=1;" vertex="1" parent="1">
          <mxGeometry x="190" y="30" width="120" height="80" as="geometry" />
        </mxCell>
        <mxCell id="V68TfB_zzxeanlvWWNrJ-37" style="edgeStyle=orthogonalEdgeStyle;rounded=0;orthogonalLoop=1;jettySize=auto;html=1;exitX=0.5;exitY=1;exitDx=0;exitDy=0;entryX=0.5;entryY=0;entryDx=0;entryDy=0;" edge="1" parent="1" source="V68TfB_zzxeanlvWWNrJ-6" target="V68TfB_zzxeanlvWWNrJ-7">
          <mxGeometry relative="1" as="geometry" />
        </mxCell>
        <mxCell id="V68TfB_zzxeanlvWWNrJ-6" value="PERTENECE" style="rhombus;whiteSpace=wrap;html=1;" vertex="1" parent="1">
          <mxGeometry x="350" y="370" width="100" height="80" as="geometry" />
        </mxCell>
        <mxCell id="V68TfB_zzxeanlvWWNrJ-48" style="edgeStyle=orthogonalEdgeStyle;rounded=0;orthogonalLoop=1;jettySize=auto;html=1;exitX=0.25;exitY=1;exitDx=0;exitDy=0;entryX=1;entryY=0.5;entryDx=0;entryDy=0;" edge="1" parent="1" source="V68TfB_zzxeanlvWWNrJ-7" target="V68TfB_zzxeanlvWWNrJ-16">
          <mxGeometry relative="1" as="geometry" />
        </mxCell>
        <mxCell id="V68TfB_zzxeanlvWWNrJ-50" style="edgeStyle=orthogonalEdgeStyle;rounded=0;orthogonalLoop=1;jettySize=auto;html=1;exitX=0.75;exitY=1;exitDx=0;exitDy=0;entryX=0;entryY=0.5;entryDx=0;entryDy=0;" edge="1" parent="1" source="V68TfB_zzxeanlvWWNrJ-7" target="V68TfB_zzxeanlvWWNrJ-17">
          <mxGeometry relative="1" as="geometry" />
        </mxCell>
        <mxCell id="V68TfB_zzxeanlvWWNrJ-7" value="EQUIPOS" style="rounded=1;whiteSpace=wrap;html=1;arcSize=0;" vertex="1" parent="1">
          <mxGeometry x="340" y="525" width="120" height="60" as="geometry" />
        </mxCell>
        <mxCell id="V68TfB_zzxeanlvWWNrJ-8" value="AÑOS" style="ellipse;whiteSpace=wrap;html=1;" vertex="1" parent="1">
          <mxGeometry x="510" y="450" width="120" height="80" as="geometry" />
        </mxCell>
        <mxCell id="V68TfB_zzxeanlvWWNrJ-46" style="edgeStyle=orthogonalEdgeStyle;rounded=0;orthogonalLoop=1;jettySize=auto;html=1;exitX=0;exitY=0.5;exitDx=0;exitDy=0;" edge="1" parent="1" source="V68TfB_zzxeanlvWWNrJ-9" target="V68TfB_zzxeanlvWWNrJ-7">
          <mxGeometry relative="1" as="geometry" />
        </mxCell>
        <mxCell id="V68TfB_zzxeanlvWWNrJ-9" value="CIUDADES" style="ellipse;whiteSpace=wrap;html=1;" vertex="1" parent="1">
          <mxGeometry x="510" y="545" width="120" height="80" as="geometry" />
        </mxCell>
        <mxCell id="V68TfB_zzxeanlvWWNrJ-51" style="edgeStyle=orthogonalEdgeStyle;rounded=0;orthogonalLoop=1;jettySize=auto;html=1;exitX=0;exitY=0;exitDx=0;exitDy=0;entryX=1;entryY=0.75;entryDx=0;entryDy=0;" edge="1" parent="1" source="V68TfB_zzxeanlvWWNrJ-10" target="V68TfB_zzxeanlvWWNrJ-7">
          <mxGeometry relative="1" as="geometry" />
        </mxCell>
        <mxCell id="V68TfB_zzxeanlvWWNrJ-10" value="CODIGO" style="ellipse;whiteSpace=wrap;html=1;" vertex="1" parent="1">
          <mxGeometry x="510" y="650" width="120" height="80" as="geometry" />
        </mxCell>
        <mxCell id="V68TfB_zzxeanlvWWNrJ-42" style="edgeStyle=orthogonalEdgeStyle;rounded=0;orthogonalLoop=1;jettySize=auto;html=1;exitX=1;exitY=0.5;exitDx=0;exitDy=0;" edge="1" parent="1" source="V68TfB_zzxeanlvWWNrJ-11">
          <mxGeometry relative="1" as="geometry">
            <mxPoint x="370" y="520" as="targetPoint" />
          </mxGeometry>
        </mxCell>
        <mxCell id="V68TfB_zzxeanlvWWNrJ-11" value="ESTADIO" style="ellipse;whiteSpace=wrap;html=1;" vertex="1" parent="1">
          <mxGeometry x="170" y="440" width="120" height="80" as="geometry" />
        </mxCell>
        <mxCell id="V68TfB_zzxeanlvWWNrJ-44" style="edgeStyle=orthogonalEdgeStyle;rounded=0;orthogonalLoop=1;jettySize=auto;html=1;exitX=1;exitY=0.5;exitDx=0;exitDy=0;entryX=0;entryY=0.5;entryDx=0;entryDy=0;" edge="1" parent="1" source="V68TfB_zzxeanlvWWNrJ-12" target="V68TfB_zzxeanlvWWNrJ-7">
          <mxGeometry relative="1" as="geometry" />
        </mxCell>
        <mxCell id="V68TfB_zzxeanlvWWNrJ-12" value="AÑO" style="ellipse;whiteSpace=wrap;html=1;" vertex="1" parent="1">
          <mxGeometry x="170" y="530" width="120" height="80" as="geometry" />
        </mxCell>
        <mxCell id="V68TfB_zzxeanlvWWNrJ-47" style="edgeStyle=orthogonalEdgeStyle;rounded=0;orthogonalLoop=1;jettySize=auto;html=1;exitX=1;exitY=0.5;exitDx=0;exitDy=0;entryX=0;entryY=0.75;entryDx=0;entryDy=0;" edge="1" parent="1" source="V68TfB_zzxeanlvWWNrJ-13" target="V68TfB_zzxeanlvWWNrJ-7">
          <mxGeometry relative="1" as="geometry" />
        </mxCell>
        <mxCell id="V68TfB_zzxeanlvWWNrJ-13" value="CIUDAD" style="ellipse;whiteSpace=wrap;html=1;" vertex="1" parent="1">
          <mxGeometry x="170" y="625" width="120" height="80" as="geometry" />
        </mxCell>
        <mxCell id="V68TfB_zzxeanlvWWNrJ-41" style="edgeStyle=orthogonalEdgeStyle;rounded=0;orthogonalLoop=1;jettySize=auto;html=1;exitX=1;exitY=0.5;exitDx=0;exitDy=0;entryX=0.25;entryY=0;entryDx=0;entryDy=0;" edge="1" parent="1" source="V68TfB_zzxeanlvWWNrJ-14" target="V68TfB_zzxeanlvWWNrJ-7">
          <mxGeometry relative="1" as="geometry" />
        </mxCell>
        <mxCell id="V68TfB_zzxeanlvWWNrJ-14" value="NOMBRE" style="ellipse;whiteSpace=wrap;html=1;" vertex="1" parent="1">
          <mxGeometry x="30" y="390" width="120" height="80" as="geometry" />
        </mxCell>
        <mxCell id="V68TfB_zzxeanlvWWNrJ-43" style="edgeStyle=orthogonalEdgeStyle;rounded=0;orthogonalLoop=1;jettySize=auto;html=1;exitX=1;exitY=0.5;exitDx=0;exitDy=0;" edge="1" parent="1" source="V68TfB_zzxeanlvWWNrJ-15">
          <mxGeometry relative="1" as="geometry">
            <mxPoint x="370" y="520" as="targetPoint" />
          </mxGeometry>
        </mxCell>
        <mxCell id="V68TfB_zzxeanlvWWNrJ-15" value="AFORO" style="ellipse;whiteSpace=wrap;html=1;" vertex="1" parent="1">
          <mxGeometry x="30" y="480" width="120" height="80" as="geometry" />
        </mxCell>
        <mxCell id="V68TfB_zzxeanlvWWNrJ-16" value="PRESIDENTE" style="rhombus;whiteSpace=wrap;html=1;" vertex="1" parent="1">
          <mxGeometry x="180" y="780" width="120" height="90" as="geometry" />
        </mxCell>
        <mxCell id="V68TfB_zzxeanlvWWNrJ-59" style="edgeStyle=orthogonalEdgeStyle;rounded=0;orthogonalLoop=1;jettySize=auto;html=1;exitX=0.5;exitY=1;exitDx=0;exitDy=0;entryX=0.25;entryY=0;entryDx=0;entryDy=0;" edge="1" parent="1" source="V68TfB_zzxeanlvWWNrJ-17" target="V68TfB_zzxeanlvWWNrJ-22">
          <mxGeometry relative="1" as="geometry" />
        </mxCell>
        <mxCell id="V68TfB_zzxeanlvWWNrJ-17" value="JUGAR" style="rhombus;whiteSpace=wrap;html=1;" vertex="1" parent="1">
          <mxGeometry x="480" y="780" width="110" height="100" as="geometry" />
        </mxCell>
        <mxCell id="V68TfB_zzxeanlvWWNrJ-52" style="edgeStyle=orthogonalEdgeStyle;rounded=0;orthogonalLoop=1;jettySize=auto;html=1;exitX=1;exitY=0.5;exitDx=0;exitDy=0;entryX=0;entryY=0.5;entryDx=0;entryDy=0;" edge="1" parent="1" source="V68TfB_zzxeanlvWWNrJ-18" target="V68TfB_zzxeanlvWWNrJ-16">
          <mxGeometry relative="1" as="geometry" />
        </mxCell>
        <mxCell id="V68TfB_zzxeanlvWWNrJ-18" value="NOMBRE Y APELLIDO" style="ellipse;whiteSpace=wrap;html=1;" vertex="1" parent="1">
          <mxGeometry x="-60" y="860" width="120" height="80" as="geometry" />
        </mxCell>
        <mxCell id="V68TfB_zzxeanlvWWNrJ-53" style="edgeStyle=orthogonalEdgeStyle;rounded=0;orthogonalLoop=1;jettySize=auto;html=1;exitX=1;exitY=0;exitDx=0;exitDy=0;" edge="1" parent="1" source="V68TfB_zzxeanlvWWNrJ-19">
          <mxGeometry relative="1" as="geometry">
            <mxPoint x="180" y="820" as="targetPoint" />
          </mxGeometry>
        </mxCell>
        <mxCell id="V68TfB_zzxeanlvWWNrJ-19" value="DNI" style="ellipse;whiteSpace=wrap;html=1;" vertex="1" parent="1">
          <mxGeometry x="60" y="930" width="80" height="50" as="geometry" />
        </mxCell>
        <mxCell id="V68TfB_zzxeanlvWWNrJ-54" style="edgeStyle=orthogonalEdgeStyle;rounded=0;orthogonalLoop=1;jettySize=auto;html=1;exitX=0.5;exitY=0;exitDx=0;exitDy=0;entryX=0.5;entryY=1;entryDx=0;entryDy=0;" edge="1" parent="1" source="V68TfB_zzxeanlvWWNrJ-20" target="V68TfB_zzxeanlvWWNrJ-16">
          <mxGeometry relative="1" as="geometry" />
        </mxCell>
        <mxCell id="V68TfB_zzxeanlvWWNrJ-20" value="FECHA NACIMIENTO" style="ellipse;whiteSpace=wrap;html=1;" vertex="1" parent="1">
          <mxGeometry x="160" y="940" width="100" height="60" as="geometry" />
        </mxCell>
        <mxCell id="V68TfB_zzxeanlvWWNrJ-55" style="edgeStyle=orthogonalEdgeStyle;rounded=0;orthogonalLoop=1;jettySize=auto;html=1;exitX=0;exitY=0;exitDx=0;exitDy=0;" edge="1" parent="1" source="V68TfB_zzxeanlvWWNrJ-21">
          <mxGeometry relative="1" as="geometry">
            <mxPoint x="240" y="870" as="targetPoint" />
          </mxGeometry>
        </mxCell>
        <mxCell id="V68TfB_zzxeanlvWWNrJ-21" value="AÑO ELEGIDO" style="ellipse;whiteSpace=wrap;html=1;" vertex="1" parent="1">
          <mxGeometry x="284" y="910" width="86" height="60" as="geometry" />
        </mxCell>
        <mxCell id="V68TfB_zzxeanlvWWNrJ-64" style="edgeStyle=orthogonalEdgeStyle;rounded=0;orthogonalLoop=1;jettySize=auto;html=1;exitX=1;exitY=0.5;exitDx=0;exitDy=0;entryX=0;entryY=0.5;entryDx=0;entryDy=0;" edge="1" parent="1" source="V68TfB_zzxeanlvWWNrJ-22" target="V68TfB_zzxeanlvWWNrJ-23">
          <mxGeometry relative="1" as="geometry" />
        </mxCell>
        <mxCell id="V68TfB_zzxeanlvWWNrJ-22" value="PARTIDO" style="rounded=1;whiteSpace=wrap;html=1;arcSize=0;" vertex="1" parent="1">
          <mxGeometry x="510" y="930" width="120" height="60" as="geometry" />
        </mxCell>
        <mxCell id="V68TfB_zzxeanlvWWNrJ-65" style="edgeStyle=orthogonalEdgeStyle;rounded=0;orthogonalLoop=1;jettySize=auto;html=1;exitX=0.5;exitY=0;exitDx=0;exitDy=0;entryX=0.5;entryY=1;entryDx=0;entryDy=0;" edge="1" parent="1" source="V68TfB_zzxeanlvWWNrJ-23" target="V68TfB_zzxeanlvWWNrJ-24">
          <mxGeometry relative="1" as="geometry" />
        </mxCell>
        <mxCell id="V68TfB_zzxeanlvWWNrJ-23" value="TIENE" style="rhombus;whiteSpace=wrap;html=1;" vertex="1" parent="1">
          <mxGeometry x="710" y="930" width="80" height="80" as="geometry" />
        </mxCell>
        <mxCell id="V68TfB_zzxeanlvWWNrJ-24" value="GOL" style="rounded=1;whiteSpace=wrap;html=1;arcSize=0;" vertex="1" parent="1">
          <mxGeometry x="675" y="815" width="120" height="60" as="geometry" />
        </mxCell>
        <mxCell id="V68TfB_zzxeanlvWWNrJ-69" style="edgeStyle=orthogonalEdgeStyle;rounded=0;orthogonalLoop=1;jettySize=auto;html=1;exitX=1;exitY=1;exitDx=0;exitDy=0;entryX=0.25;entryY=0;entryDx=0;entryDy=0;" edge="1" parent="1" source="V68TfB_zzxeanlvWWNrJ-25" target="V68TfB_zzxeanlvWWNrJ-24">
          <mxGeometry relative="1" as="geometry" />
        </mxCell>
        <mxCell id="V68TfB_zzxeanlvWWNrJ-25" value="CODIGO" style="ellipse;whiteSpace=wrap;html=1;" vertex="1" parent="1">
          <mxGeometry x="610" y="740" width="70" height="40" as="geometry" />
        </mxCell>
        <mxCell id="V68TfB_zzxeanlvWWNrJ-70" style="edgeStyle=orthogonalEdgeStyle;rounded=0;orthogonalLoop=1;jettySize=auto;html=1;exitX=0.5;exitY=1;exitDx=0;exitDy=0;entryX=0.5;entryY=0;entryDx=0;entryDy=0;" edge="1" parent="1" source="V68TfB_zzxeanlvWWNrJ-26" target="V68TfB_zzxeanlvWWNrJ-24">
          <mxGeometry relative="1" as="geometry" />
        </mxCell>
        <mxCell id="V68TfB_zzxeanlvWWNrJ-26" value="MINUTO" style="ellipse;whiteSpace=wrap;html=1;" vertex="1" parent="1">
          <mxGeometry x="700" y="760" width="70" height="40" as="geometry" />
        </mxCell>
        <mxCell id="V68TfB_zzxeanlvWWNrJ-72" style="edgeStyle=orthogonalEdgeStyle;rounded=0;orthogonalLoop=1;jettySize=auto;html=1;exitX=0;exitY=1;exitDx=0;exitDy=0;entryX=1;entryY=0.5;entryDx=0;entryDy=0;" edge="1" parent="1" source="V68TfB_zzxeanlvWWNrJ-27" target="V68TfB_zzxeanlvWWNrJ-24">
          <mxGeometry relative="1" as="geometry" />
        </mxCell>
        <mxCell id="V68TfB_zzxeanlvWWNrJ-27" value="DISCRIPCIÓN" style="ellipse;whiteSpace=wrap;html=1;" vertex="1" parent="1">
          <mxGeometry x="790" y="760" width="100" height="40" as="geometry" />
        </mxCell>
        <mxCell id="V68TfB_zzxeanlvWWNrJ-60" style="edgeStyle=orthogonalEdgeStyle;rounded=0;orthogonalLoop=1;jettySize=auto;html=1;exitX=1;exitY=0;exitDx=0;exitDy=0;entryX=0;entryY=0.5;entryDx=0;entryDy=0;" edge="1" parent="1" source="V68TfB_zzxeanlvWWNrJ-28" target="V68TfB_zzxeanlvWWNrJ-22">
          <mxGeometry relative="1" as="geometry" />
        </mxCell>
        <mxCell id="V68TfB_zzxeanlvWWNrJ-28" value="CODIGO" style="ellipse;whiteSpace=wrap;html=1;" vertex="1" parent="1">
          <mxGeometry x="380" y="1020" width="80" height="40" as="geometry" />
        </mxCell>
        <mxCell id="V68TfB_zzxeanlvWWNrJ-61" style="edgeStyle=orthogonalEdgeStyle;rounded=0;orthogonalLoop=1;jettySize=auto;html=1;exitX=1;exitY=0;exitDx=0;exitDy=0;entryX=0.25;entryY=1;entryDx=0;entryDy=0;" edge="1" parent="1" source="V68TfB_zzxeanlvWWNrJ-29" target="V68TfB_zzxeanlvWWNrJ-22">
          <mxGeometry relative="1" as="geometry" />
        </mxCell>
        <mxCell id="V68TfB_zzxeanlvWWNrJ-29" value="FECHA" style="ellipse;whiteSpace=wrap;html=1;" vertex="1" parent="1">
          <mxGeometry x="470" y="1030" width="70" height="40" as="geometry" />
        </mxCell>
        <mxCell id="V68TfB_zzxeanlvWWNrJ-62" style="edgeStyle=orthogonalEdgeStyle;rounded=0;orthogonalLoop=1;jettySize=auto;html=1;exitX=0.5;exitY=0;exitDx=0;exitDy=0;entryX=0.5;entryY=1;entryDx=0;entryDy=0;" edge="1" parent="1" source="V68TfB_zzxeanlvWWNrJ-30" target="V68TfB_zzxeanlvWWNrJ-22">
          <mxGeometry relative="1" as="geometry" />
        </mxCell>
        <mxCell id="V68TfB_zzxeanlvWWNrJ-30" value="GOLES EN CASA" style="ellipse;whiteSpace=wrap;html=1;" vertex="1" parent="1">
          <mxGeometry x="530" y="1070" width="110" height="40" as="geometry" />
        </mxCell>
        <mxCell id="V68TfB_zzxeanlvWWNrJ-63" style="edgeStyle=orthogonalEdgeStyle;rounded=0;orthogonalLoop=1;jettySize=auto;html=1;exitX=0.5;exitY=0;exitDx=0;exitDy=0;entryX=0.75;entryY=1;entryDx=0;entryDy=0;" edge="1" parent="1" source="V68TfB_zzxeanlvWWNrJ-31" target="V68TfB_zzxeanlvWWNrJ-22">
          <mxGeometry relative="1" as="geometry" />
        </mxCell>
        <mxCell id="V68TfB_zzxeanlvWWNrJ-31" value="GOLES DE FUERA" style="ellipse;whiteSpace=wrap;html=1;" vertex="1" parent="1">
          <mxGeometry x="595" y="1020" width="100" height="40" as="geometry" />
        </mxCell>
        <mxCell id="V68TfB_zzxeanlvWWNrJ-38" value="(1,N)" style="text;html=1;strokeColor=none;fillColor=none;align=center;verticalAlign=middle;whiteSpace=wrap;rounded=0;" vertex="1" parent="1">
          <mxGeometry x="400" y="330" width="60" height="30" as="geometry" />
        </mxCell>
        <mxCell id="V68TfB_zzxeanlvWWNrJ-39" value="(N,1)" style="text;html=1;strokeColor=none;fillColor=none;align=center;verticalAlign=middle;whiteSpace=wrap;rounded=0;" vertex="1" parent="1">
          <mxGeometry x="450" y="395" width="60" height="30" as="geometry" />
        </mxCell>
        <mxCell id="V68TfB_zzxeanlvWWNrJ-40" value="(1,1)" style="text;html=1;strokeColor=none;fillColor=none;align=center;verticalAlign=middle;whiteSpace=wrap;rounded=0;" vertex="1" parent="1">
          <mxGeometry x="410" y="470" width="60" height="30" as="geometry" />
        </mxCell>
        <mxCell id="V68TfB_zzxeanlvWWNrJ-45" style="edgeStyle=orthogonalEdgeStyle;rounded=0;orthogonalLoop=1;jettySize=auto;html=1;exitX=0;exitY=0.5;exitDx=0;exitDy=0;entryX=0.925;entryY=0.133;entryDx=0;entryDy=0;entryPerimeter=0;" edge="1" parent="1" source="V68TfB_zzxeanlvWWNrJ-8" target="V68TfB_zzxeanlvWWNrJ-7">
          <mxGeometry relative="1" as="geometry" />
        </mxCell>
        <mxCell id="V68TfB_zzxeanlvWWNrJ-56" value="(1,1)" style="text;html=1;strokeColor=none;fillColor=none;align=center;verticalAlign=middle;whiteSpace=wrap;rounded=0;" vertex="1" parent="1">
          <mxGeometry x="210" y="730" width="60" height="30" as="geometry" />
        </mxCell>
        <mxCell id="V68TfB_zzxeanlvWWNrJ-57" value="(1,N)" style="text;html=1;strokeColor=none;fillColor=none;align=center;verticalAlign=middle;whiteSpace=wrap;rounded=0;" vertex="1" parent="1">
          <mxGeometry x="555" y="885" width="60" height="30" as="geometry" />
        </mxCell>
        <mxCell id="V68TfB_zzxeanlvWWNrJ-58" value="(1,N)" style="text;html=1;align=center;verticalAlign=middle;resizable=0;points=[];autosize=1;strokeColor=none;fillColor=none;" vertex="1" parent="1">
          <mxGeometry x="430" y="760" width="50" height="30" as="geometry" />
        </mxCell>
        <mxCell id="V68TfB_zzxeanlvWWNrJ-66" value="(1,1)" style="text;html=1;strokeColor=none;fillColor=none;align=center;verticalAlign=middle;whiteSpace=wrap;rounded=0;" vertex="1" parent="1">
          <mxGeometry x="640" y="925" width="60" height="30" as="geometry" />
        </mxCell>
        <mxCell id="V68TfB_zzxeanlvWWNrJ-67" value="(0,N)" style="text;html=1;strokeColor=none;fillColor=none;align=center;verticalAlign=middle;whiteSpace=wrap;rounded=0;" vertex="1" parent="1">
          <mxGeometry x="760" y="885" width="60" height="30" as="geometry" />
        </mxCell>
        <mxCell id="V68TfB_zzxeanlvWWNrJ-68" value="(1,N)" style="text;html=1;strokeColor=none;fillColor=none;align=center;verticalAlign=middle;whiteSpace=wrap;rounded=0;" vertex="1" parent="1">
          <mxGeometry x="720" y="1010" width="60" height="30" as="geometry" />
        </mxCell>
        <mxCell id="V68TfB_zzxeanlvWWNrJ-73" value="JUGADOR:(NOMBRE,&lt;u&gt;CODIGO&lt;/u&gt;,FECHA NACIMIENTO, POSICIÓN, CODIGO-EQUIPO).JUGADOR-CODIGOEQUIPO-EQUIPOS.&lt;br&gt;EQUIPO(NOMBRE,ESTADIO NOMBRE,AFORO ESTADIO,AÑO FUNDACION, CIUDAD,CODIGO, &lt;u&gt;DNI PRESIDENTE)&lt;/u&gt;.CODIGO EQUIPO-DNI PRESIDENTE-PRESIDENTE.&lt;br&gt;PARTIDO:(CODIGO, FECHA,GOLES CASA, GOLES FUERA, &lt;u&gt;CODIGO EQUIPO&lt;/u&gt;).PARTIDO-CODIGO EQUIPO-EQUIPO.&lt;br&gt;GOL:(&lt;u&gt;MINUTOS,DESCRIPCION, CODIGO PARTIDO).GOL-CODIGO PARTIDO-PARTIDO&lt;br&gt;&lt;/u&gt;PRESIDENTE(DNI, NOMBRE,APELLIDOS,FECHANACIMNIENTO,AÑO ELEGIDO, EQUIPO." style="text;html=1;strokeColor=none;fillColor=none;align=center;verticalAlign=middle;whiteSpace=wrap;rounded=0;" vertex="1" parent="1">
          <mxGeometry x="570" y="180" width="340" height="260" as="geometry" />
        </mxCell>
      </root>
    </mxGraphModel>
  </diagram>
</mxfile>
